<svg width="466" height="466" viewBox="0 0 466 466" fill="none" xmlns="http://www.w3.org/2000/svg">
<path fill-rule="evenodd" clip-rule="evenodd" d="M393.207 63.6867C394.69 62.2538 395.874 60.5397 396.688 58.6446C397.502 56.7495 397.931 54.7112 397.949 52.6487C397.966 50.5862 397.573 48.5408 396.792 46.6318C396.011 44.7228 394.858 42.9885 393.399 41.53C391.941 40.0715 390.206 38.9181 388.297 38.1371C386.388 37.3561 384.343 36.9631 382.28 36.981C380.217 36.9989 378.179 37.4274 376.284 38.2415C374.388 39.0556 372.674 40.2389 371.241 41.7225L359.87 53.0929C333.336 30.1095 301.631 13.8907 267.466 5.8223C233.3 -2.24611 197.689 -1.92435 163.675 6.76011C129.661 15.4446 98.2552 32.2336 72.1403 55.6927C46.0254 79.1519 25.9778 108.584 13.7105 141.474C1.44315 174.365 -2.67937 209.736 1.69515 244.565C6.06967 279.395 18.8112 312.648 38.8311 341.484C58.8511 370.32 85.5544 393.881 116.66 410.154C147.765 426.427 182.347 434.929 217.453 434.933C210.018 425.044 203.791 414.301 198.905 402.935C169.838 400.028 141.861 390.331 117.231 374.626C92.6004 358.921 72.0059 337.648 57.1082 312.522C42.2106 287.395 33.4268 259.12 31.4654 229.976C29.5039 200.832 34.4197 171.634 45.8163 144.739C57.2129 117.843 74.7712 94.0024 97.0751 75.139C119.379 56.2757 145.804 42.9179 174.219 36.1429C202.635 29.368 232.245 29.3655 260.661 36.1358C289.077 42.9061 315.505 56.2595 337.812 75.1192L315.753 97.1765C297.416 82.2044 275.899 71.6213 252.846 66.2356C229.793 60.85 205.814 60.8043 182.74 66.1019C159.667 71.3996 138.109 81.9006 119.715 96.8026C101.321 111.705 86.5757 130.614 76.6067 152.085C66.6377 173.556 61.7083 197.022 62.195 220.689C62.6818 244.357 68.5718 267.6 79.4152 288.643C90.2586 309.687 105.768 327.973 124.76 342.107C143.752 356.24 165.722 365.846 188.994 370.19C187.016 359.519 186.162 348.669 186.446 337.819C157.232 330.186 131.793 312.184 114.879 287.172C97.965 262.161 90.7312 231.849 94.5279 201.895C98.3247 171.941 112.893 144.392 135.512 124.391C158.132 104.39 187.258 93.303 217.453 93.2C245.057 93.1485 271.885 102.335 293.664 119.296L271.45 141.478C252.402 127.896 228.944 121.973 205.731 124.885C182.519 127.798 161.251 139.332 146.15 157.198C131.048 175.065 123.218 197.956 124.214 221.328C125.21 244.699 134.959 266.842 151.526 283.359C152.968 284.803 154.68 285.949 156.566 286.732C158.451 287.514 160.472 287.918 162.513 287.919C164.554 287.92 166.575 287.52 168.462 286.74C170.348 285.96 172.062 284.817 173.506 283.375C174.951 281.932 176.097 280.22 176.879 278.335C177.662 276.45 178.065 274.429 178.067 272.388C178.068 270.347 177.667 268.326 176.888 266.44C176.108 264.553 174.964 262.839 173.522 261.395C162.829 250.701 156.404 236.475 155.45 221.383C154.496 206.291 159.08 191.369 168.341 179.414C177.602 167.46 190.905 159.292 205.757 156.443C220.609 153.594 235.99 156.259 249.018 163.939L225.499 187.456C218.893 185.686 211.887 186.144 205.568 188.761C199.249 191.378 193.97 196.007 190.55 201.929C187.13 207.852 185.76 214.737 186.653 221.518C187.546 228.299 190.651 234.595 195.487 239.431C200.323 244.267 206.62 247.372 213.401 248.265C220.182 249.157 227.068 247.787 232.991 244.368C238.914 240.948 243.543 235.669 246.16 229.35C248.777 223.032 249.236 216.026 247.465 209.42L283.349 173.538L359.777 97.1144C384.19 125.869 399.255 161.383 402.962 198.92C414.364 203.828 425.114 210.104 434.932 217.467C434.932 166.642 417.223 115.848 381.805 75.0571L393.207 63.6867ZM466 341.733C466 374.691 452.907 406.299 429.601 429.603C406.295 452.908 374.686 466 341.726 466C308.767 466 277.157 452.908 253.852 429.603C230.546 406.299 217.453 374.691 217.453 341.733C217.453 308.776 230.546 277.168 253.852 253.864C277.157 230.559 308.767 217.467 341.726 217.467C374.686 217.467 406.295 230.559 429.601 253.864C452.907 277.168 466 308.776 466 341.733ZM414.861 299.669C417.774 302.582 419.41 306.532 419.41 310.651C419.41 314.77 417.774 318.72 414.861 321.633L337.19 399.3C335.747 400.746 334.033 401.894 332.146 402.677C330.259 403.46 328.235 403.863 326.192 403.863C324.149 403.863 322.126 403.46 320.238 402.677C318.351 401.894 316.637 400.746 315.194 399.3L284.126 368.233C281.213 365.316 279.578 361.362 279.581 357.24C279.584 353.118 281.224 349.166 284.141 346.254C287.058 343.341 291.013 341.706 295.135 341.709C299.257 341.712 303.209 343.352 306.122 346.269L326.192 366.369L392.865 299.669C394.308 298.223 396.022 297.075 397.909 296.292C399.797 295.509 401.82 295.106 403.863 295.106C405.906 295.106 407.93 295.509 409.817 296.292C411.704 297.075 413.418 298.223 414.861 299.669Z" fill="#ECECEC"/>
</svg>
