<svg width="101" height="100" viewBox="0 0 101 100" fill="none" xmlns="http://www.w3.org/2000/svg">
<circle cx="21" cy="79" r="21" fill="#FFD100"/>
<mask id="path-2-outside-1_1239_1645" maskUnits="userSpaceOnUse" x="11" y="0" width="90" height="90" fill="black">
<rect fill="white" x="11" width="90" height="90"/>
<path fill-rule="evenodd" clip-rule="evenodd" d="M80.486 1.09951C76.8486 1.51127 73.474 3.17451 70.8236 5.86175C69.5582 7.14488 68.6958 8.35158 67.9115 9.93658C66.903 11.9749 66.418 13.6916 66.2295 15.8907C65.9838 18.7586 66.5232 21.5453 67.8545 24.2839C70.1047 28.9131 74.3699 32.119 79.5772 33.0955C80.7602 33.3173 83.7917 33.3456 84.8388 33.1447C88.1481 32.5096 90.5743 31.3776 92.8881 29.3891C96.4903 26.2934 98.4713 21.9496 98.4714 17.1466C98.4715 10.9734 95.1518 5.58418 89.59 2.72773C86.8808 1.33643 83.5908 0.747996 80.486 1.09951ZM18.5895 4.1C15.6754 4.7507 13.3829 6.8544 12.4372 9.74528C11.4829 12.6629 12.1604 15.9068 14.1986 18.1783C14.7779 18.8242 19.6153 23.8084 22.9079 27.1522C24.1518 28.4153 25.2869 29.5904 25.4305 29.7632C25.5741 29.936 25.8135 30.1405 25.9624 30.2175C26.3094 30.3969 27.0361 30.3974 27.3819 30.2187C27.5298 30.1423 29.6895 27.9794 32.1815 25.4123C34.6733 22.8452 37.26 20.1853 37.9296 19.5014C38.5992 18.8176 39.2401 18.1504 39.3539 18.0189C40.0434 17.2219 40.7791 15.8068 41.0753 14.7079C41.3382 13.7323 41.4258 12.0581 41.2658 11.0656C40.7348 7.77253 38.4221 5.13626 35.2628 4.22262C34.6215 4.03716 34.3054 4.00837 32.9874 4.01478C31.521 4.02205 31.4193 4.03534 30.5656 4.33061C29.1648 4.81507 28.2937 5.34783 27.3025 6.32632L26.6879 6.93292L26.0619 6.33043C25.7176 5.99911 25.413 5.70642 25.385 5.67993C25.258 5.56017 24.2346 4.91942 23.8941 4.7464C23.6863 4.6409 23.1504 4.43716 22.7032 4.29379C22.0159 4.07341 21.6827 4.0275 20.5507 3.99708C19.611 3.97183 19.0257 4.00254 18.5895 4.1ZM80.3903 4.19029C78.1614 4.59183 76.6113 5.21555 74.8895 6.4037C73.351 7.4653 72.0338 8.87603 71.0762 10.4879C69.2665 13.534 68.7674 17.1867 69.6945 20.6014C70.4906 23.5336 72.5318 26.3785 75.033 28.0422C78.4873 30.3398 82.9303 30.8842 86.7936 29.4834C90.4563 28.1554 93.4204 25.1547 94.7168 21.4622C96.9119 15.2103 94.0242 8.26598 88.0251 5.37031C86.9994 4.87523 86.2433 4.61431 85.0302 4.33664C83.9117 4.08068 81.4327 4.00244 80.3903 4.19029ZM19.8332 6.98926C18.6106 7.1093 17.6267 7.59338 16.6722 8.54451C15.4806 9.73179 14.9717 11.0718 15.0761 12.7474C15.1762 14.3535 15.7151 15.4451 17.0927 16.8323C17.5213 17.2638 19.2479 19.0309 20.9295 20.7591C22.6111 22.4873 24.5985 24.5228 25.3459 25.2824L26.7046 26.6636L27.4543 25.8842C27.8667 25.4556 29.6456 23.6288 31.4076 21.8248C33.1696 20.0209 35.1765 17.9639 35.8674 17.2537C37.8742 15.1909 38.3211 14.2859 38.3037 12.3198C38.2613 7.53714 32.6478 5.252 29.2967 8.65316C29.0252 8.92882 28.7043 9.42055 28.4519 9.94758C27.847 11.2107 27.815 11.2607 27.4942 11.4522C26.5849 11.9948 25.5974 11.5759 25.1844 10.4722C24.9225 9.77235 24.2249 8.73523 23.726 8.30414C22.647 7.37157 21.1364 6.86138 19.8332 6.98926ZM77.1279 8.57435C76.9491 8.69315 76.705 8.98373 76.5856 9.21998L76.3683 9.64963L76.3942 17.2537C76.4197 24.7283 76.4235 24.8635 76.6167 25.1922C77.0659 25.9569 78.0199 26.1923 78.8118 25.7339C79.0223 25.6121 81.5192 24.0562 84.3605 22.2764C87.2018 20.4965 89.7418 18.9141 90.0049 18.7598C90.685 18.361 90.9974 18.0358 91.1132 17.6062C91.2701 17.0233 91.1404 16.5227 90.728 16.1197C90.5318 15.928 88.6098 14.677 86.457 13.3398C84.3043 12.0025 82.3276 10.7715 82.0645 10.6043C80.4759 9.59473 78.9299 8.6371 78.6801 8.50797C78.2461 8.28358 77.5187 8.31466 77.1279 8.57435ZM79.4337 17.1208C79.4337 21.1713 79.4498 21.6678 79.5802 21.6178C79.8046 21.5317 86.7034 17.2126 86.7036 17.158C86.7037 17.1317 85.3597 16.2709 83.717 15.2451C82.0742 14.2192 80.4384 13.1971 80.0819 12.9738L79.4337 12.5678V17.1208ZM43.544 15.8199C42.4965 16.3755 42.4973 17.8893 43.5455 18.4783L43.9245 18.6912L53.1577 18.6659C62.3143 18.6408 62.3932 18.639 62.6551 18.4434C63.1572 18.0686 63.3138 17.7629 63.3138 17.158C63.3138 16.5532 63.1572 16.2475 62.6551 15.8727C62.3931 15.677 62.3182 15.6753 53.1422 15.655C44.1556 15.6351 43.8834 15.6398 43.544 15.8199ZM25.8585 33.4555C25.1556 33.9377 25.1829 33.6609 25.2121 39.988L25.2383 45.6489L25.5253 45.9538C25.851 46.2999 26.3058 46.5222 26.6879 46.5222C27.0943 46.5222 27.7468 46.1576 27.9612 45.8106C28.1516 45.5027 28.1562 45.3634 28.1558 39.8633C28.1555 34.4122 28.1494 34.2213 27.9653 33.9196C27.5387 33.2199 26.5269 32.9971 25.8585 33.4555ZM81.8566 36.2115C81.6898 36.2663 81.41 36.459 81.2348 36.6396L80.9165 36.9679L80.8897 46.2644C80.875 51.3775 80.8862 55.6561 80.9145 55.7724C80.9429 55.8888 81.1209 56.1343 81.3103 56.3181C81.929 56.919 82.8225 56.8796 83.4586 56.2234L83.7865 55.8851L83.8119 46.5626C83.8397 36.277 83.8767 36.9278 83.2365 36.4465C82.8708 36.1715 82.2831 36.0714 81.8566 36.2115ZM25.621 49.3636C22.2525 49.8207 19.4076 52.1183 18.346 55.2389C17.3872 58.0573 17.9081 61.312 19.6749 63.5429C19.8604 63.777 19.9867 64.0096 19.9557 64.0598C19.9246 64.11 19.9417 64.1249 19.9936 64.0927C20.1179 64.016 21.0078 64.9217 20.9117 65.0272C20.871 65.0721 20.8894 65.079 20.9527 65.0427C21.0168 65.0059 21.2681 65.1296 21.5201 65.3219C22.385 65.982 23.9243 66.6439 25.1093 66.8654C25.3381 66.9082 26.1065 66.9411 26.8168 66.9385C27.8403 66.9348 28.274 66.8896 28.9067 66.7203C30.994 66.1619 32.8595 64.8287 34.0569 63.0393C35.5605 60.7925 35.9349 57.8132 35.0383 55.2294C34.315 53.1451 32.6768 51.2776 30.6914 50.274C29.1478 49.4937 27.2169 49.1471 25.621 49.3636ZM25.1905 52.5816C23.5218 53.0776 22.2675 54.098 21.5581 55.5371C20.9115 56.8486 20.7581 57.9628 21.0372 59.3192C21.6185 62.1427 24.1419 64.0693 27.0446 63.9058C30.0529 63.7364 32.4612 61.2024 32.4612 58.2064C32.4612 55.6894 30.9667 53.5678 28.5867 52.7059C27.5261 52.3217 26.2249 52.2742 25.1905 52.5816ZM67.6927 59.817C67.1224 60.0206 66.3049 60.5381 65.9271 60.9348C65.4623 61.4228 64.9999 62.3092 64.8447 63.0095C64.7121 63.6083 64.6972 64.7427 64.7225 72.3473C64.7547 82.0812 64.7055 81.4266 65.4922 82.6C65.9827 83.3316 66.8397 84.0021 67.6794 84.3112C68.2812 84.5328 68.3426 84.5358 72.8376 84.5679L77.3868 84.6005L79.4386 86.661C80.5671 87.7944 81.5725 88.7656 81.6728 88.8193C81.9571 88.9718 82.7027 88.9441 83.0387 88.7685C83.2061 88.6809 84.2465 87.705 85.3507 86.5998L87.3581 84.5903H91.5624C93.9372 84.5903 95.9908 84.549 96.282 84.4954C98.1752 84.1461 99.6347 82.6259 99.8987 80.7279C100.03 79.7825 100.035 64.4707 99.9044 63.4627C99.6992 61.8821 98.8079 60.6768 97.281 59.9152L96.7972 59.6739L82.495 59.6562C68.7511 59.6391 68.1733 59.6454 67.6927 59.817ZM68.5446 62.7515C68.3698 62.838 68.1222 63.0625 67.9945 63.2504L67.7623 63.592V71.9964C67.7623 81.2908 67.7307 80.8111 68.372 81.2685C68.6699 81.4809 68.6915 81.4819 73.602 81.5296L78.5329 81.5774L78.9115 81.8818C79.1198 82.0491 79.9785 82.8777 80.8198 83.7231L82.3494 85.2601L84.0725 83.5418C85.1586 82.4588 85.927 81.7693 86.1512 81.6766C86.4544 81.5513 87.1877 81.5296 91.1196 81.5296C95.5509 81.5296 95.7476 81.522 96.1212 81.3368C96.3351 81.2309 96.5963 81.0265 96.7015 80.8825C96.889 80.6263 96.8934 80.449 96.9184 72.2038C96.9362 66.3214 96.9127 63.7113 96.8403 63.5362C96.7832 63.3985 96.5864 63.1403 96.4029 62.9624L96.0691 62.639L82.4658 62.6167C70.0129 62.5963 68.8356 62.6077 68.5446 62.7515ZM74.243 67.1081C73.1052 67.7674 73.3668 69.5753 74.643 69.872C75.1589 69.992 89.6408 69.9764 90.0765 69.8555C91.1009 69.571 91.518 68.2616 90.8406 67.4567C90.3501 66.8739 90.6755 66.8951 82.2828 66.8975L74.6025 66.8997L74.243 67.1081ZM25.334 68.3963C24.5802 68.4637 22.8916 68.8165 22.1583 69.06C18.5238 70.2668 15.3151 72.9984 13.634 76.3167C12.4513 78.6516 12.0396 80.4106 12.0024 83.2892C11.9712 85.712 12.2321 86.5782 13.315 87.6463C13.9354 88.2583 14.5871 88.635 15.3846 88.8427C16.2053 89.0564 37.2025 89.0505 38.0055 88.8364C38.8205 88.619 39.3385 88.3217 40.024 87.6782C41.2592 86.5183 41.5784 85.2797 41.3788 82.4203C41.2029 79.9008 40.7764 78.3204 39.7188 76.2689C37.0112 71.0166 31.2573 67.8677 25.334 68.3963ZM45.0144 71.4542C44.5441 71.686 44.2918 72.1042 44.2485 72.7237C44.2073 73.3141 44.4076 73.7219 44.9288 74.108C45.1968 74.3066 45.2572 74.3083 52.8692 74.335C59.7781 74.3593 60.5803 74.3464 60.9512 74.2056C61.8391 73.8684 62.1773 72.6759 61.5996 71.9187C61.1016 71.2658 61.5042 71.295 53.0087 71.2974C46.1297 71.2993 45.2957 71.3156 45.0144 71.4542ZM25.8602 71.4157C25.8339 71.4423 25.5106 71.489 25.1418 71.5195C23.4511 71.6594 21.0428 72.6696 19.5462 73.8669C17.4054 75.5793 16.0327 77.7056 15.3713 80.334C15.1816 81.0872 15.1192 81.6284 15.0773 82.8806C15.0174 84.6707 15.0626 85.0659 15.365 85.3893C15.906 85.9682 15.1773 85.9352 26.7913 85.9071L37.388 85.8816L37.7004 85.6588C38.2396 85.2743 38.2969 85.0549 38.2968 83.3756C38.2966 81.7901 38.1698 80.7959 37.8164 79.6097C37.1288 77.301 35.5358 75.0961 33.4615 73.5815C32.1496 72.6236 30.1399 71.7903 28.5388 71.54C28.0219 71.4593 25.9139 71.3615 25.8602 71.4157ZM74.5244 74.3021C74.0721 74.4648 73.8463 74.6642 73.6526 75.0725C73.3263 75.76 73.6038 76.6496 74.2597 77.0181L74.6344 77.2287L82.4322 77.2031C90.1387 77.1778 90.2331 77.1753 90.4942 76.9803C90.9776 76.6195 91.1461 76.3043 91.1461 75.7604C91.1461 75.1482 90.9001 74.6821 90.432 74.4071C90.1069 74.2163 89.9529 74.2121 82.495 74.1916C76.248 74.1745 74.8242 74.1942 74.5244 74.3021Z"/>
</mask>
<path fill-rule="evenodd" clip-rule="evenodd" d="M80.486 1.09951C76.8486 1.51127 73.474 3.17451 70.8236 5.86175C69.5582 7.14488 68.6958 8.35158 67.9115 9.93658C66.903 11.9749 66.418 13.6916 66.2295 15.8907C65.9838 18.7586 66.5232 21.5453 67.8545 24.2839C70.1047 28.9131 74.3699 32.119 79.5772 33.0955C80.7602 33.3173 83.7917 33.3456 84.8388 33.1447C88.1481 32.5096 90.5743 31.3776 92.8881 29.3891C96.4903 26.2934 98.4713 21.9496 98.4714 17.1466C98.4715 10.9734 95.1518 5.58418 89.59 2.72773C86.8808 1.33643 83.5908 0.747996 80.486 1.09951ZM18.5895 4.1C15.6754 4.7507 13.3829 6.8544 12.4372 9.74528C11.4829 12.6629 12.1604 15.9068 14.1986 18.1783C14.7779 18.8242 19.6153 23.8084 22.9079 27.1522C24.1518 28.4153 25.2869 29.5904 25.4305 29.7632C25.5741 29.936 25.8135 30.1405 25.9624 30.2175C26.3094 30.3969 27.0361 30.3974 27.3819 30.2187C27.5298 30.1423 29.6895 27.9794 32.1815 25.4123C34.6733 22.8452 37.26 20.1853 37.9296 19.5014C38.5992 18.8176 39.2401 18.1504 39.3539 18.0189C40.0434 17.2219 40.7791 15.8068 41.0753 14.7079C41.3382 13.7323 41.4258 12.0581 41.2658 11.0656C40.7348 7.77253 38.4221 5.13626 35.2628 4.22262C34.6215 4.03716 34.3054 4.00837 32.9874 4.01478C31.521 4.02205 31.4193 4.03534 30.5656 4.33061C29.1648 4.81507 28.2937 5.34783 27.3025 6.32632L26.6879 6.93292L26.0619 6.33043C25.7176 5.99911 25.413 5.70642 25.385 5.67993C25.258 5.56017 24.2346 4.91942 23.8941 4.7464C23.6863 4.6409 23.1504 4.43716 22.7032 4.29379C22.0159 4.07341 21.6827 4.0275 20.5507 3.99708C19.611 3.97183 19.0257 4.00254 18.5895 4.1ZM80.3903 4.19029C78.1614 4.59183 76.6113 5.21555 74.8895 6.4037C73.351 7.4653 72.0338 8.87603 71.0762 10.4879C69.2665 13.534 68.7674 17.1867 69.6945 20.6014C70.4906 23.5336 72.5318 26.3785 75.033 28.0422C78.4873 30.3398 82.9303 30.8842 86.7936 29.4834C90.4563 28.1554 93.4204 25.1547 94.7168 21.4622C96.9119 15.2103 94.0242 8.26598 88.0251 5.37031C86.9994 4.87523 86.2433 4.61431 85.0302 4.33664C83.9117 4.08068 81.4327 4.00244 80.3903 4.19029ZM19.8332 6.98926C18.6106 7.1093 17.6267 7.59338 16.6722 8.54451C15.4806 9.73179 14.9717 11.0718 15.0761 12.7474C15.1762 14.3535 15.7151 15.4451 17.0927 16.8323C17.5213 17.2638 19.2479 19.0309 20.9295 20.7591C22.6111 22.4873 24.5985 24.5228 25.3459 25.2824L26.7046 26.6636L27.4543 25.8842C27.8667 25.4556 29.6456 23.6288 31.4076 21.8248C33.1696 20.0209 35.1765 17.9639 35.8674 17.2537C37.8742 15.1909 38.3211 14.2859 38.3037 12.3198C38.2613 7.53714 32.6478 5.252 29.2967 8.65316C29.0252 8.92882 28.7043 9.42055 28.4519 9.94758C27.847 11.2107 27.815 11.2607 27.4942 11.4522C26.5849 11.9948 25.5974 11.5759 25.1844 10.4722C24.9225 9.77235 24.2249 8.73523 23.726 8.30414C22.647 7.37157 21.1364 6.86138 19.8332 6.98926ZM77.1279 8.57435C76.9491 8.69315 76.705 8.98373 76.5856 9.21998L76.3683 9.64963L76.3942 17.2537C76.4197 24.7283 76.4235 24.8635 76.6167 25.1922C77.0659 25.9569 78.0199 26.1923 78.8118 25.7339C79.0223 25.6121 81.5192 24.0562 84.3605 22.2764C87.2018 20.4965 89.7418 18.9141 90.0049 18.7598C90.685 18.361 90.9974 18.0358 91.1132 17.6062C91.2701 17.0233 91.1404 16.5227 90.728 16.1197C90.5318 15.928 88.6098 14.677 86.457 13.3398C84.3043 12.0025 82.3276 10.7715 82.0645 10.6043C80.4759 9.59473 78.9299 8.6371 78.6801 8.50797C78.2461 8.28358 77.5187 8.31466 77.1279 8.57435ZM79.4337 17.1208C79.4337 21.1713 79.4498 21.6678 79.5802 21.6178C79.8046 21.5317 86.7034 17.2126 86.7036 17.158C86.7037 17.1317 85.3597 16.2709 83.717 15.2451C82.0742 14.2192 80.4384 13.1971 80.0819 12.9738L79.4337 12.5678V17.1208ZM43.544 15.8199C42.4965 16.3755 42.4973 17.8893 43.5455 18.4783L43.9245 18.6912L53.1577 18.6659C62.3143 18.6408 62.3932 18.639 62.6551 18.4434C63.1572 18.0686 63.3138 17.7629 63.3138 17.158C63.3138 16.5532 63.1572 16.2475 62.6551 15.8727C62.3931 15.677 62.3182 15.6753 53.1422 15.655C44.1556 15.6351 43.8834 15.6398 43.544 15.8199ZM25.8585 33.4555C25.1556 33.9377 25.1829 33.6609 25.2121 39.988L25.2383 45.6489L25.5253 45.9538C25.851 46.2999 26.3058 46.5222 26.6879 46.5222C27.0943 46.5222 27.7468 46.1576 27.9612 45.8106C28.1516 45.5027 28.1562 45.3634 28.1558 39.8633C28.1555 34.4122 28.1494 34.2213 27.9653 33.9196C27.5387 33.2199 26.5269 32.9971 25.8585 33.4555ZM81.8566 36.2115C81.6898 36.2663 81.41 36.459 81.2348 36.6396L80.9165 36.9679L80.8897 46.2644C80.875 51.3775 80.8862 55.6561 80.9145 55.7724C80.9429 55.8888 81.1209 56.1343 81.3103 56.3181C81.929 56.919 82.8225 56.8796 83.4586 56.2234L83.7865 55.8851L83.8119 46.5626C83.8397 36.277 83.8767 36.9278 83.2365 36.4465C82.8708 36.1715 82.2831 36.0714 81.8566 36.2115ZM25.621 49.3636C22.2525 49.8207 19.4076 52.1183 18.346 55.2389C17.3872 58.0573 17.9081 61.312 19.6749 63.5429C19.8604 63.777 19.9867 64.0096 19.9557 64.0598C19.9246 64.11 19.9417 64.1249 19.9936 64.0927C20.1179 64.016 21.0078 64.9217 20.9117 65.0272C20.871 65.0721 20.8894 65.079 20.9527 65.0427C21.0168 65.0059 21.2681 65.1296 21.5201 65.3219C22.385 65.982 23.9243 66.6439 25.1093 66.8654C25.3381 66.9082 26.1065 66.9411 26.8168 66.9385C27.8403 66.9348 28.274 66.8896 28.9067 66.7203C30.994 66.1619 32.8595 64.8287 34.0569 63.0393C35.5605 60.7925 35.9349 57.8132 35.0383 55.2294C34.315 53.1451 32.6768 51.2776 30.6914 50.274C29.1478 49.4937 27.2169 49.1471 25.621 49.3636ZM25.1905 52.5816C23.5218 53.0776 22.2675 54.098 21.5581 55.5371C20.9115 56.8486 20.7581 57.9628 21.0372 59.3192C21.6185 62.1427 24.1419 64.0693 27.0446 63.9058C30.0529 63.7364 32.4612 61.2024 32.4612 58.2064C32.4612 55.6894 30.9667 53.5678 28.5867 52.7059C27.5261 52.3217 26.2249 52.2742 25.1905 52.5816ZM67.6927 59.817C67.1224 60.0206 66.3049 60.5381 65.9271 60.9348C65.4623 61.4228 64.9999 62.3092 64.8447 63.0095C64.7121 63.6083 64.6972 64.7427 64.7225 72.3473C64.7547 82.0812 64.7055 81.4266 65.4922 82.6C65.9827 83.3316 66.8397 84.0021 67.6794 84.3112C68.2812 84.5328 68.3426 84.5358 72.8376 84.5679L77.3868 84.6005L79.4386 86.661C80.5671 87.7944 81.5725 88.7656 81.6728 88.8193C81.9571 88.9718 82.7027 88.9441 83.0387 88.7685C83.2061 88.6809 84.2465 87.705 85.3507 86.5998L87.3581 84.5903H91.5624C93.9372 84.5903 95.9908 84.549 96.282 84.4954C98.1752 84.1461 99.6347 82.6259 99.8987 80.7279C100.03 79.7825 100.035 64.4707 99.9044 63.4627C99.6992 61.8821 98.8079 60.6768 97.281 59.9152L96.7972 59.6739L82.495 59.6562C68.7511 59.6391 68.1733 59.6454 67.6927 59.817ZM68.5446 62.7515C68.3698 62.838 68.1222 63.0625 67.9945 63.2504L67.7623 63.592V71.9964C67.7623 81.2908 67.7307 80.8111 68.372 81.2685C68.6699 81.4809 68.6915 81.4819 73.602 81.5296L78.5329 81.5774L78.9115 81.8818C79.1198 82.0491 79.9785 82.8777 80.8198 83.7231L82.3494 85.2601L84.0725 83.5418C85.1586 82.4588 85.927 81.7693 86.1512 81.6766C86.4544 81.5513 87.1877 81.5296 91.1196 81.5296C95.5509 81.5296 95.7476 81.522 96.1212 81.3368C96.3351 81.2309 96.5963 81.0265 96.7015 80.8825C96.889 80.6263 96.8934 80.449 96.9184 72.2038C96.9362 66.3214 96.9127 63.7113 96.8403 63.5362C96.7832 63.3985 96.5864 63.1403 96.4029 62.9624L96.0691 62.639L82.4658 62.6167C70.0129 62.5963 68.8356 62.6077 68.5446 62.7515ZM74.243 67.1081C73.1052 67.7674 73.3668 69.5753 74.643 69.872C75.1589 69.992 89.6408 69.9764 90.0765 69.8555C91.1009 69.571 91.518 68.2616 90.8406 67.4567C90.3501 66.8739 90.6755 66.8951 82.2828 66.8975L74.6025 66.8997L74.243 67.1081ZM25.334 68.3963C24.5802 68.4637 22.8916 68.8165 22.1583 69.06C18.5238 70.2668 15.3151 72.9984 13.634 76.3167C12.4513 78.6516 12.0396 80.4106 12.0024 83.2892C11.9712 85.712 12.2321 86.5782 13.315 87.6463C13.9354 88.2583 14.5871 88.635 15.3846 88.8427C16.2053 89.0564 37.2025 89.0505 38.0055 88.8364C38.8205 88.619 39.3385 88.3217 40.024 87.6782C41.2592 86.5183 41.5784 85.2797 41.3788 82.4203C41.2029 79.9008 40.7764 78.3204 39.7188 76.2689C37.0112 71.0166 31.2573 67.8677 25.334 68.3963ZM45.0144 71.4542C44.5441 71.686 44.2918 72.1042 44.2485 72.7237C44.2073 73.3141 44.4076 73.7219 44.9288 74.108C45.1968 74.3066 45.2572 74.3083 52.8692 74.335C59.7781 74.3593 60.5803 74.3464 60.9512 74.2056C61.8391 73.8684 62.1773 72.6759 61.5996 71.9187C61.1016 71.2658 61.5042 71.295 53.0087 71.2974C46.1297 71.2993 45.2957 71.3156 45.0144 71.4542ZM25.8602 71.4157C25.8339 71.4423 25.5106 71.489 25.1418 71.5195C23.4511 71.6594 21.0428 72.6696 19.5462 73.8669C17.4054 75.5793 16.0327 77.7056 15.3713 80.334C15.1816 81.0872 15.1192 81.6284 15.0773 82.8806C15.0174 84.6707 15.0626 85.0659 15.365 85.3893C15.906 85.9682 15.1773 85.9352 26.7913 85.9071L37.388 85.8816L37.7004 85.6588C38.2396 85.2743 38.2969 85.0549 38.2968 83.3756C38.2966 81.7901 38.1698 80.7959 37.8164 79.6097C37.1288 77.301 35.5358 75.0961 33.4615 73.5815C32.1496 72.6236 30.1399 71.7903 28.5388 71.54C28.0219 71.4593 25.9139 71.3615 25.8602 71.4157ZM74.5244 74.3021C74.0721 74.4648 73.8463 74.6642 73.6526 75.0725C73.3263 75.76 73.6038 76.6496 74.2597 77.0181L74.6344 77.2287L82.4322 77.2031C90.1387 77.1778 90.2331 77.1753 90.4942 76.9803C90.9776 76.6195 91.1461 76.3043 91.1461 75.7604C91.1461 75.1482 90.9001 74.6821 90.432 74.4071C90.1069 74.2163 89.9529 74.2121 82.495 74.1916C76.248 74.1745 74.8242 74.1942 74.5244 74.3021Z" fill="#191919"/>
<path fill-rule="evenodd" clip-rule="evenodd" d="M80.486 1.09951C76.8486 1.51127 73.474 3.17451 70.8236 5.86175C69.5582 7.14488 68.6958 8.35158 67.9115 9.93658C66.903 11.9749 66.418 13.6916 66.2295 15.8907C65.9838 18.7586 66.5232 21.5453 67.8545 24.2839C70.1047 28.9131 74.3699 32.119 79.5772 33.0955C80.7602 33.3173 83.7917 33.3456 84.8388 33.1447C88.1481 32.5096 90.5743 31.3776 92.8881 29.3891C96.4903 26.2934 98.4713 21.9496 98.4714 17.1466C98.4715 10.9734 95.1518 5.58418 89.59 2.72773C86.8808 1.33643 83.5908 0.747996 80.486 1.09951ZM18.5895 4.1C15.6754 4.7507 13.3829 6.8544 12.4372 9.74528C11.4829 12.6629 12.1604 15.9068 14.1986 18.1783C14.7779 18.8242 19.6153 23.8084 22.9079 27.1522C24.1518 28.4153 25.2869 29.5904 25.4305 29.7632C25.5741 29.936 25.8135 30.1405 25.9624 30.2175C26.3094 30.3969 27.0361 30.3974 27.3819 30.2187C27.5298 30.1423 29.6895 27.9794 32.1815 25.4123C34.6733 22.8452 37.26 20.1853 37.9296 19.5014C38.5992 18.8176 39.2401 18.1504 39.3539 18.0189C40.0434 17.2219 40.7791 15.8068 41.0753 14.7079C41.3382 13.7323 41.4258 12.0581 41.2658 11.0656C40.7348 7.77253 38.4221 5.13626 35.2628 4.22262C34.6215 4.03716 34.3054 4.00837 32.9874 4.01478C31.521 4.02205 31.4193 4.03534 30.5656 4.33061C29.1648 4.81507 28.2937 5.34783 27.3025 6.32632L26.6879 6.93292L26.0619 6.33043C25.7176 5.99911 25.413 5.70642 25.385 5.67993C25.258 5.56017 24.2346 4.91942 23.8941 4.7464C23.6863 4.6409 23.1504 4.43716 22.7032 4.29379C22.0159 4.07341 21.6827 4.0275 20.5507 3.99708C19.611 3.97183 19.0257 4.00254 18.5895 4.1ZM80.3903 4.19029C78.1614 4.59183 76.6113 5.21555 74.8895 6.4037C73.351 7.4653 72.0338 8.87603 71.0762 10.4879C69.2665 13.534 68.7674 17.1867 69.6945 20.6014C70.4906 23.5336 72.5318 26.3785 75.033 28.0422C78.4873 30.3398 82.9303 30.8842 86.7936 29.4834C90.4563 28.1554 93.4204 25.1547 94.7168 21.4622C96.9119 15.2103 94.0242 8.26598 88.0251 5.37031C86.9994 4.87523 86.2433 4.61431 85.0302 4.33664C83.9117 4.08068 81.4327 4.00244 80.3903 4.19029ZM19.8332 6.98926C18.6106 7.1093 17.6267 7.59338 16.6722 8.54451C15.4806 9.73179 14.9717 11.0718 15.0761 12.7474C15.1762 14.3535 15.7151 15.4451 17.0927 16.8323C17.5213 17.2638 19.2479 19.0309 20.9295 20.7591C22.6111 22.4873 24.5985 24.5228 25.3459 25.2824L26.7046 26.6636L27.4543 25.8842C27.8667 25.4556 29.6456 23.6288 31.4076 21.8248C33.1696 20.0209 35.1765 17.9639 35.8674 17.2537C37.8742 15.1909 38.3211 14.2859 38.3037 12.3198C38.2613 7.53714 32.6478 5.252 29.2967 8.65316C29.0252 8.92882 28.7043 9.42055 28.4519 9.94758C27.847 11.2107 27.815 11.2607 27.4942 11.4522C26.5849 11.9948 25.5974 11.5759 25.1844 10.4722C24.9225 9.77235 24.2249 8.73523 23.726 8.30414C22.647 7.37157 21.1364 6.86138 19.8332 6.98926ZM77.1279 8.57435C76.9491 8.69315 76.705 8.98373 76.5856 9.21998L76.3683 9.64963L76.3942 17.2537C76.4197 24.7283 76.4235 24.8635 76.6167 25.1922C77.0659 25.9569 78.0199 26.1923 78.8118 25.7339C79.0223 25.6121 81.5192 24.0562 84.3605 22.2764C87.2018 20.4965 89.7418 18.9141 90.0049 18.7598C90.685 18.361 90.9974 18.0358 91.1132 17.6062C91.2701 17.0233 91.1404 16.5227 90.728 16.1197C90.5318 15.928 88.6098 14.677 86.457 13.3398C84.3043 12.0025 82.3276 10.7715 82.0645 10.6043C80.4759 9.59473 78.9299 8.6371 78.6801 8.50797C78.2461 8.28358 77.5187 8.31466 77.1279 8.57435ZM79.4337 17.1208C79.4337 21.1713 79.4498 21.6678 79.5802 21.6178C79.8046 21.5317 86.7034 17.2126 86.7036 17.158C86.7037 17.1317 85.3597 16.2709 83.717 15.2451C82.0742 14.2192 80.4384 13.1971 80.0819 12.9738L79.4337 12.5678V17.1208ZM43.544 15.8199C42.4965 16.3755 42.4973 17.8893 43.5455 18.4783L43.9245 18.6912L53.1577 18.6659C62.3143 18.6408 62.3932 18.639 62.6551 18.4434C63.1572 18.0686 63.3138 17.7629 63.3138 17.158C63.3138 16.5532 63.1572 16.2475 62.6551 15.8727C62.3931 15.677 62.3182 15.6753 53.1422 15.655C44.1556 15.6351 43.8834 15.6398 43.544 15.8199ZM25.8585 33.4555C25.1556 33.9377 25.1829 33.6609 25.2121 39.988L25.2383 45.6489L25.5253 45.9538C25.851 46.2999 26.3058 46.5222 26.6879 46.5222C27.0943 46.5222 27.7468 46.1576 27.9612 45.8106C28.1516 45.5027 28.1562 45.3634 28.1558 39.8633C28.1555 34.4122 28.1494 34.2213 27.9653 33.9196C27.5387 33.2199 26.5269 32.9971 25.8585 33.4555ZM81.8566 36.2115C81.6898 36.2663 81.41 36.459 81.2348 36.6396L80.9165 36.9679L80.8897 46.2644C80.875 51.3775 80.8862 55.6561 80.9145 55.7724C80.9429 55.8888 81.1209 56.1343 81.3103 56.3181C81.929 56.919 82.8225 56.8796 83.4586 56.2234L83.7865 55.8851L83.8119 46.5626C83.8397 36.277 83.8767 36.9278 83.2365 36.4465C82.8708 36.1715 82.2831 36.0714 81.8566 36.2115ZM25.621 49.3636C22.2525 49.8207 19.4076 52.1183 18.346 55.2389C17.3872 58.0573 17.9081 61.312 19.6749 63.5429C19.8604 63.777 19.9867 64.0096 19.9557 64.0598C19.9246 64.11 19.9417 64.1249 19.9936 64.0927C20.1179 64.016 21.0078 64.9217 20.9117 65.0272C20.871 65.0721 20.8894 65.079 20.9527 65.0427C21.0168 65.0059 21.2681 65.1296 21.5201 65.3219C22.385 65.982 23.9243 66.6439 25.1093 66.8654C25.3381 66.9082 26.1065 66.9411 26.8168 66.9385C27.8403 66.9348 28.274 66.8896 28.9067 66.7203C30.994 66.1619 32.8595 64.8287 34.0569 63.0393C35.5605 60.7925 35.9349 57.8132 35.0383 55.2294C34.315 53.1451 32.6768 51.2776 30.6914 50.274C29.1478 49.4937 27.2169 49.1471 25.621 49.3636ZM25.1905 52.5816C23.5218 53.0776 22.2675 54.098 21.5581 55.5371C20.9115 56.8486 20.7581 57.9628 21.0372 59.3192C21.6185 62.1427 24.1419 64.0693 27.0446 63.9058C30.0529 63.7364 32.4612 61.2024 32.4612 58.2064C32.4612 55.6894 30.9667 53.5678 28.5867 52.7059C27.5261 52.3217 26.2249 52.2742 25.1905 52.5816ZM67.6927 59.817C67.1224 60.0206 66.3049 60.5381 65.9271 60.9348C65.4623 61.4228 64.9999 62.3092 64.8447 63.0095C64.7121 63.6083 64.6972 64.7427 64.7225 72.3473C64.7547 82.0812 64.7055 81.4266 65.4922 82.6C65.9827 83.3316 66.8397 84.0021 67.6794 84.3112C68.2812 84.5328 68.3426 84.5358 72.8376 84.5679L77.3868 84.6005L79.4386 86.661C80.5671 87.7944 81.5725 88.7656 81.6728 88.8193C81.9571 88.9718 82.7027 88.9441 83.0387 88.7685C83.2061 88.6809 84.2465 87.705 85.3507 86.5998L87.3581 84.5903H91.5624C93.9372 84.5903 95.9908 84.549 96.282 84.4954C98.1752 84.1461 99.6347 82.6259 99.8987 80.7279C100.03 79.7825 100.035 64.4707 99.9044 63.4627C99.6992 61.8821 98.8079 60.6768 97.281 59.9152L96.7972 59.6739L82.495 59.6562C68.7511 59.6391 68.1733 59.6454 67.6927 59.817ZM68.5446 62.7515C68.3698 62.838 68.1222 63.0625 67.9945 63.2504L67.7623 63.592V71.9964C67.7623 81.2908 67.7307 80.8111 68.372 81.2685C68.6699 81.4809 68.6915 81.4819 73.602 81.5296L78.5329 81.5774L78.9115 81.8818C79.1198 82.0491 79.9785 82.8777 80.8198 83.7231L82.3494 85.2601L84.0725 83.5418C85.1586 82.4588 85.927 81.7693 86.1512 81.6766C86.4544 81.5513 87.1877 81.5296 91.1196 81.5296C95.5509 81.5296 95.7476 81.522 96.1212 81.3368C96.3351 81.2309 96.5963 81.0265 96.7015 80.8825C96.889 80.6263 96.8934 80.449 96.9184 72.2038C96.9362 66.3214 96.9127 63.7113 96.8403 63.5362C96.7832 63.3985 96.5864 63.1403 96.4029 62.9624L96.0691 62.639L82.4658 62.6167C70.0129 62.5963 68.8356 62.6077 68.5446 62.7515ZM74.243 67.1081C73.1052 67.7674 73.3668 69.5753 74.643 69.872C75.1589 69.992 89.6408 69.9764 90.0765 69.8555C91.1009 69.571 91.518 68.2616 90.8406 67.4567C90.3501 66.8739 90.6755 66.8951 82.2828 66.8975L74.6025 66.8997L74.243 67.1081ZM25.334 68.3963C24.5802 68.4637 22.8916 68.8165 22.1583 69.06C18.5238 70.2668 15.3151 72.9984 13.634 76.3167C12.4513 78.6516 12.0396 80.4106 12.0024 83.2892C11.9712 85.712 12.2321 86.5782 13.315 87.6463C13.9354 88.2583 14.5871 88.635 15.3846 88.8427C16.2053 89.0564 37.2025 89.0505 38.0055 88.8364C38.8205 88.619 39.3385 88.3217 40.024 87.6782C41.2592 86.5183 41.5784 85.2797 41.3788 82.4203C41.2029 79.9008 40.7764 78.3204 39.7188 76.2689C37.0112 71.0166 31.2573 67.8677 25.334 68.3963ZM45.0144 71.4542C44.5441 71.686 44.2918 72.1042 44.2485 72.7237C44.2073 73.3141 44.4076 73.7219 44.9288 74.108C45.1968 74.3066 45.2572 74.3083 52.8692 74.335C59.7781 74.3593 60.5803 74.3464 60.9512 74.2056C61.8391 73.8684 62.1773 72.6759 61.5996 71.9187C61.1016 71.2658 61.5042 71.295 53.0087 71.2974C46.1297 71.2993 45.2957 71.3156 45.0144 71.4542ZM25.8602 71.4157C25.8339 71.4423 25.5106 71.489 25.1418 71.5195C23.4511 71.6594 21.0428 72.6696 19.5462 73.8669C17.4054 75.5793 16.0327 77.7056 15.3713 80.334C15.1816 81.0872 15.1192 81.6284 15.0773 82.8806C15.0174 84.6707 15.0626 85.0659 15.365 85.3893C15.906 85.9682 15.1773 85.9352 26.7913 85.9071L37.388 85.8816L37.7004 85.6588C38.2396 85.2743 38.2969 85.0549 38.2968 83.3756C38.2966 81.7901 38.1698 80.7959 37.8164 79.6097C37.1288 77.301 35.5358 75.0961 33.4615 73.5815C32.1496 72.6236 30.1399 71.7903 28.5388 71.54C28.0219 71.4593 25.9139 71.3615 25.8602 71.4157ZM74.5244 74.3021C74.0721 74.4648 73.8463 74.6642 73.6526 75.0725C73.3263 75.76 73.6038 76.6496 74.2597 77.0181L74.6344 77.2287L82.4322 77.2031C90.1387 77.1778 90.2331 77.1753 90.4942 76.9803C90.9776 76.6195 91.1461 76.3043 91.1461 75.7604C91.1461 75.1482 90.9001 74.6821 90.432 74.4071C90.1069 74.2163 89.9529 74.2121 82.495 74.1916C76.248 74.1745 74.8242 74.1942 74.5244 74.3021Z" stroke="black" stroke-width="0.6" mask="url(#path-2-outside-1_1239_1645)"/>
</svg>
