<svg width="97" height="88" viewBox="0 0 97 88" fill="none" xmlns="http://www.w3.org/2000/svg">
<circle cx="21" cy="67" r="21" fill="#FFD100"/>
<path fill-rule="evenodd" clip-rule="evenodd" d="M40.9109 22.4575C40.9462 22.4583 40.9821 22.4587 41.0185 22.4592H41.0186C40.9821 22.4587 40.9462 22.4583 40.9109 22.4575ZM72.7086 51.0519L72.7087 51.052C72.9141 51.1516 73.1069 51.245 73.2832 51.3304C73.1069 51.245 72.9141 51.1515 72.7086 51.0519ZM84.0063 12.9679L84.0122 12.9738C91.9705 20.8922 96.3501 31.4273 96.3501 42.648C96.3501 65.7529 77.4183 84.6019 54.177 84.6019C47.1131 84.6019 40.1751 82.8235 34.0026 79.4774L33.4294 79.1667L12.3456 84.681L17.9642 64.1562L17.6207 63.5602C13.9605 57.2079 12.0039 50.0116 12.0039 42.604C12.0039 19.4992 30.9358 0.650164 54.177 0.650174L54.1827 0.650155C59.7274 0.630935 65.2202 1.71041 70.3407 3.82541C75.4612 5.9404 80.1067 9.04846 84.0063 12.9679ZM34.7583 75.2167L34.7682 75.2225C40.6361 78.6704 47.3364 80.5099 54.177 80.5099C75.1504 80.5099 92.2654 63.5493 92.1768 42.6478C92.1946 37.6658 91.2188 32.7299 89.3061 28.1261C87.3932 23.5218 84.5813 19.3414 81.0339 15.827C73.869 8.6537 64.2959 4.69814 54.1328 4.69814C33.153 4.69814 16.0446 21.709 16.0446 42.604L16.0446 42.6053C16.0499 49.733 18.0687 56.7151 21.87 62.7549L21.876 62.7643L22.3639 63.5169L18.1331 78.9353L34.0257 74.7793L34.7583 75.2167ZM42.0625 41.1241C42.7374 42.2432 45.0105 45.9923 48.4816 49.0731C52.2579 52.4307 55.617 53.861 57.1047 54.4945L57.1053 54.4947C57.3302 54.5905 57.5122 54.668 57.6465 54.7312C58.3038 55.0681 59.091 55.3525 59.9435 55.2541C60.8738 55.1468 61.5431 54.6299 62.0199 54.0607C62.6512 53.3413 64.7496 50.8572 65.5667 49.6667C65.5893 49.6354 65.6092 49.6098 65.6263 49.5889C65.74 49.6147 65.8852 49.6596 66.1076 49.736C66.8574 50.0494 69.8849 51.517 71.8792 52.4837C72.579 52.823 73.1516 53.1005 73.4539 53.2449C73.6853 53.3555 73.9015 53.4546 74.0873 53.5398L74.2225 53.602C74.4456 53.7047 74.6041 53.7797 74.7304 53.8466C74.7447 53.8542 74.7581 53.8614 74.7705 53.8683C74.7832 54.0578 74.7828 54.3273 74.754 54.67C74.689 55.4405 74.489 56.4745 74.0737 57.6158L74.0694 57.6277L74.0652 57.6397C73.8124 58.3691 72.9023 59.335 71.507 60.2275C70.1563 61.0915 68.7578 61.6282 68.0066 61.7384C66.2195 61.9861 64.1148 62.0882 61.8443 61.3607L61.8326 61.3569L61.8208 61.3533C60.2638 60.8799 58.2965 60.2414 55.7683 59.1328L55.7565 59.1278C45.7473 54.8309 38.9453 44.9709 37.8598 43.3974L37.8596 43.3972C37.8093 43.3243 37.7713 43.2692 37.7459 43.2333L37.7321 43.2139L37.7095 43.1839C37.4476 42.8365 36.4114 41.4622 35.4375 39.5547C34.4409 37.6029 33.5838 35.2344 33.5838 32.9241C33.5838 28.6206 35.6121 26.4011 36.708 25.2019C36.7986 25.1028 36.8828 25.0106 36.9589 24.9248C37.6108 24.2264 38.287 24.1021 38.6554 24.1021H40.7315C40.8342 24.1072 40.9317 24.1083 40.9959 24.109H40.9959L41.0183 24.1093C41.1091 24.1104 41.1573 24.1117 41.1981 24.1147C41.2093 24.1156 41.2183 24.1164 41.2253 24.1172C41.2881 24.1716 41.4772 24.3748 41.7282 24.9712C42.5973 27.1328 44.8361 32.5744 45.1409 33.1809C45.2279 33.3541 45.2467 33.4389 45.2507 33.4772C45.2524 33.4928 45.252 33.5049 45.2496 33.5193C45.2473 33.5329 45.2406 33.5635 45.218 33.6138L45.1529 33.7435C44.8371 34.3735 44.6958 34.6554 44.348 35.0591C44.1264 35.3164 43.9209 35.564 43.7287 35.7955C43.3799 36.2157 43.0751 36.5828 42.7981 36.8584L42.7651 36.8912C42.5032 37.1508 41.9799 37.6695 41.7191 38.3915C41.3925 39.2957 41.5508 40.2164 42.0376 41.0813L42.0497 41.1029L42.0625 41.1241Z" fill="#191919"/>
</svg>
