<svg width="38" height="37" viewBox="0 0 38 37" fill="none" xmlns="http://www.w3.org/2000/svg">
<path fill-rule="evenodd" clip-rule="evenodd" d="M29.4927 23.1523C29.4927 20.7836 29.7519 19.733 29.3796 17.1416C28.8654 13.3233 27.4909 9.67334 25.3604 6.47009L22.5613 3.00586C22.0884 2.52314 19.7842 0.238464 19.1667 0.077179C19.6475 0.805234 21.7656 2.29201 20.5792 5.30589C20.047 6.54721 19.2412 7.65077 18.2226 8.53329C17.9265 8.85924 17.6108 9.16649 17.2769 9.45329C15.6831 10.6953 14.8362 11.4694 13.0287 12.6501C12.6333 12.9107 12.2661 13.1174 11.8847 13.3707C11.5033 13.624 11.1297 13.825 10.763 14.109C10.0312 14.6065 9.33305 15.1519 8.67268 15.7417L7.74215 16.6004C5.96074 18.2612 4.44763 20.1908 3.25726 22.3198L2.28093 24.1751C1.46683 25.9772 0.847945 27.8622 0.435055 29.7974C0.194469 30.8787 0.0488834 31.9792 0 33.0861V36.6742C0.472825 36.5977 0.941094 36.4953 1.40282 36.3675C2.42489 36.1528 4.58389 35.5088 5.59805 35.2022C6.07886 35.0642 6.46011 34.9182 6.93301 34.7575C8.63364 34.1981 11.8067 33.4081 12.8519 31.9668C13.874 30.5561 12.8593 29.1841 11.7219 28.6161C11.4959 28.5088 10.8298 28.4248 10.3094 28.2408C9.40207 27.9267 8.92911 28.2868 7.89913 28.1334C7.6456 28.0745 7.38839 28.0335 7.12916 28.0108C7.09442 28.1601 7.03501 28.3025 6.95343 28.4321L6.82349 28.7462C6.81615 28.7615 6.80878 28.7848 6.80087 28.8002L6.75507 28.9075C6.69405 28.1488 6.12166 27.1135 7.26351 25.7567C7.42211 25.5927 7.59555 25.4438 7.7816 25.3121C8.20805 25.0153 8.67248 24.778 9.16236 24.6067C10.3675 24.1621 9.54381 24.5301 10.2303 23.664C11.5422 22.0233 14.8215 21.9603 16.8052 22.238C17.7006 22.3279 18.588 22.4841 19.4605 22.7054C21.4589 23.2801 22.5035 24.6448 23.6629 25.7261C24.5439 26.6047 25.304 27.5979 25.9229 28.6792C29.3655 26.8324 32.67 24.7364 35.8102 22.4078L37.1449 21.4424C37.1156 20.9364 37.0442 20.4337 36.9314 19.9397C36.4608 17.6611 35.675 15.4599 34.5972 13.4002C34.2021 12.6283 33.7374 11.8943 33.209 11.2076C33.1173 13.9803 32.5418 16.7152 31.5085 19.2877C30.9926 20.5764 30.3622 21.8157 29.6248 22.9905C29.5837 23.0468 29.5396 23.1008 29.4927 23.1523Z" fill="#C4030A"/>
<path fill-rule="evenodd" clip-rule="evenodd" d="M11.2891 25.4673C11.6846 25.36 11.8688 24.9306 12.1818 24.716C12.2449 24.8532 12.3406 24.9728 12.4607 25.064C12.5808 25.1551 12.7215 25.2151 12.8701 25.2385C13.0187 25.262 13.1708 25.2482 13.3129 25.1985C13.455 25.1487 13.5828 25.0645 13.6848 24.9533C13.8156 24.6959 13.8634 24.404 13.8219 24.118C14.3527 24.0547 14.8746 23.9313 15.3778 23.75H12.3344L11.2891 25.4673Z" fill="#C4030A"/>
<path fill-rule="evenodd" clip-rule="evenodd" d="M9.28223 25.0152V25.3146C9.73987 25.4372 10.0298 25.9892 10.0298 25.1686C10.0298 24.6932 9.54156 24.9539 9.28223 25.0152Z" fill="#C4030A"/>
<path fill-rule="evenodd" clip-rule="evenodd" d="M19.1668 0.0766728V0L19.0752 0.0613348L19.1668 0.0766728Z" fill="#C4030A"/>
</svg>
