<svg width="90" height="90" viewBox="0 0 90 90" fill="none" xmlns="http://www.w3.org/2000/svg">
<path d="M60.4387 12.0937L60.6283 12.8194L61.3539 12.6298L67.2397 11.0921C68.6082 10.7345 70.0627 10.9352 71.2833 11.6501C72.5038 12.365 73.3904 13.5355 73.748 14.904L76.0543 23.7318C76.8159 26.6614 76.3844 29.7735 74.8545 32.3854C73.3247 34.9973 70.8214 36.8959 67.8937 37.6647L67.1294 37.8644L66.5663 38.0115L66.569 38.5935C66.5912 43.3138 65.1908 47.9313 62.5505 51.8442C59.9101 55.757 56.1523 58.7837 51.7668 60.5297L51.151 60.7748L51.3185 61.4161L54.4471 73.3907L54.6367 74.1163L55.3623 73.9267L69.3511 70.2719L70.5097 74.7064L36.6463 83.5537L35.4877 79.1193L49.4765 75.4645L50.2022 75.2749L50.0126 74.5492L46.8863 62.5835L46.7229 61.958L46.0802 62.0274C41.4276 62.5296 36.7294 61.6665 32.5591 59.5433C28.3889 57.4201 24.927 54.1287 22.596 50.0709L22.3105 49.574L21.756 49.7189L20.8093 49.9662C17.8797 50.7277 14.7677 50.2962 12.1557 48.7664C9.54392 47.2366 7.6454 44.7335 6.87651 41.806L4.57001 32.9778C4.21245 31.6093 4.4132 30.1547 5.12808 28.9342C5.84296 27.7136 7.01342 26.8271 8.38197 26.4695L14.2677 24.9318L14.9934 24.7422L14.8038 24.0165L14.0349 21.0737C13.6774 19.7051 13.8781 18.2506 14.593 17.03C15.3079 15.8095 16.4783 14.9229 17.8469 14.5654L53.1615 5.3389C54.5301 4.98134 55.9846 5.18209 57.2051 5.89697C58.4257 6.61185 59.3122 7.78231 59.6698 9.15086L60.4387 12.0937ZM19.6499 45.532L20.3755 45.3424L20.1859 44.6167L16.3415 29.9023L16.152 29.1767L15.4263 29.3663L9.54055 30.904L8.81491 31.0936L9.00449 31.8192L11.3111 40.6479C11.7692 42.4013 12.9051 43.901 14.469 44.8169C16.0328 45.7329 17.8964 45.9901 19.6499 45.532ZM47.2141 57.1821L47.2256 57.1798L47.237 57.1772C49.7174 56.6102 52.0587 55.5509 54.1219 54.0619C56.1851 52.5729 57.9283 50.6848 59.2479 48.5093C60.5676 46.3339 61.4369 43.9156 61.8042 41.3979C62.1715 38.8802 62.0294 36.3143 61.3863 33.8525L55.2353 10.3094L55.0457 9.58379L54.3201 9.77338L19.0055 18.9999L18.2798 19.1894L18.4694 19.9151L24.3936 42.59C25.5897 47.4897 28.6278 51.7402 32.8767 54.458C37.1273 57.1769 42.2625 58.1526 47.2141 57.1821ZM65.8208 32.6939L66.0104 33.4196L66.736 33.23C68.4895 32.7719 69.9891 31.636 70.9051 30.0721C71.821 28.5083 72.0782 26.6447 71.6201 24.8913L69.3135 16.0626L69.1239 15.337L68.3982 15.5265L62.5125 17.0643L61.7868 17.2539L61.9764 17.9795L65.8208 32.6939Z" fill="#191919" stroke="white" stroke-width="1.5"/>
<path d="M16.6182 18.7625L55.8029 8.52494L62.4384 33.9224C65.2654 44.743 58.7854 55.8066 47.9648 58.6336C37.1442 61.4606 26.0807 54.9806 23.2536 44.16L16.6182 18.7625Z" fill="#FFD100"/>
<rect x="34.0215" y="79.4355" width="39.5" height="10.5" rx="5.25" transform="rotate(-14.6421 34.0215 79.4355)" fill="white" stroke="black" stroke-width="2.5"/>
</svg>
