<svg width="76" height="75" viewBox="0 0 76 75" fill="none" xmlns="http://www.w3.org/2000/svg">
<path d="M45.0175 6.59391L45.0169 6.5919C43.362 1.13213 35.6473 1.07492 34.0237 6.59804L28.0567 26.25H10.2498C4.65352 26.25 2.37776 33.4805 6.91025 36.719C6.91096 36.7195 6.91167 36.72 6.91238 36.7205L21.5086 47.2202L15.7468 65.9263C15.7467 65.9267 15.7466 65.9271 15.7464 65.9276C14.0921 71.2742 20.2654 75.6631 24.7246 72.2274C24.7258 72.2264 24.7271 72.2255 24.7284 72.2245L39.4984 60.9375L54.2716 72.2673C54.2724 72.2679 54.2732 72.2685 54.274 72.2691C58.733 75.7067 64.9074 71.3181 63.2538 65.9712C63.2538 65.9712 63.2538 65.9711 63.2538 65.9711C63.2536 65.9704 63.2534 65.9698 63.2532 65.9691L57.4914 47.263L72.092 36.7602L72.0978 36.7559C76.604 33.4816 74.3618 26.2928 68.7502 26.2928H50.9584L45.0175 6.59391Z" stroke="black" stroke-width="3"/>
<path d="M45.1395 28.4492L38.7033 7.11674C37.4335 2.92959 31.5665 2.92959 30.3405 7.11674L23.8605 28.4492H4.37663C0.129589 28.4492 -1.62177 33.9586 1.83716 36.4268L17.7745 47.8864L11.5134 68.2051C10.2437 72.3041 14.9724 75.6097 18.3437 73.0093L34.5 60.6682L50.6563 73.0534C54.0276 75.6538 58.7563 72.3482 57.4866 68.2492L51.2255 47.9305L67.1628 36.4709C70.6218 33.9586 68.8704 28.4933 64.6234 28.4933H45.1395V28.4492Z" fill="#FFD100"/>
</svg>
