<svg width="71" height="74" viewBox="0 0 71 74" fill="none" xmlns="http://www.w3.org/2000/svg">
<path d="M30.2098 30.1869C37.9999 30.1869 44.315 23.8718 44.315 16.0816C44.315 8.29152 37.9999 1.97638 30.2098 1.97638C22.4196 1.97638 16.1045 8.29152 16.1045 16.0816C16.1045 23.8718 22.4196 30.1869 30.2098 30.1869Z" stroke="black" stroke-width="3"/>
<path d="M58.4211 56.6339C58.4211 65.3968 58.4211 72.5023 30.2105 72.5023C2 72.5023 2 65.3968 2 56.6339C2 47.871 14.6313 40.7654 30.2105 40.7654C45.7898 40.7654 58.4211 47.871 58.4211 56.6339Z" fill="#FFD100"/>
<path d="M58.4211 56.6339C58.4211 65.3968 58.4211 72.5023 30.2105 72.5023C2 72.5023 2 65.3968 2 56.6339C2 47.871 14.6313 40.7654 30.2105 40.7654C45.7898 40.7654 58.4211 47.871 58.4211 56.6339Z" stroke="black" stroke-width="3"/>
<path d="M61.9481 1.97638C61.9481 1.97638 69.0008 6.20796 69.0008 16.0816C69.0008 25.9553 61.9481 30.1869 61.9481 30.1869M54.8955 9.02901C54.8955 9.02901 58.4218 11.1448 58.4218 16.0816C58.4218 21.0185 54.8955 23.1343 54.8955 23.1343" stroke="black" stroke-width="3" stroke-linecap="round"/>
</svg>
