<svg width="85" height="84" viewBox="0 0 85 84" fill="none" xmlns="http://www.w3.org/2000/svg">
<path d="M12.9687 53.6286C13.0533 54.0549 13.2256 54.459 13.4747 54.8152L30.6152 79.3225C31.065 79.9658 31.7397 80.417 32.506 80.5871C33.2723 80.7571 34.0746 80.6336 34.7543 80.241L37.6957 78.5427C38.4161 78.1268 38.9417 77.4418 39.157 76.6384C39.3723 75.8349 39.2596 74.9789 38.8437 74.2585L23.9466 48.456C23.5307 47.7357 22.8457 47.2101 22.0423 46.9948C21.2388 46.7795 20.3828 46.8922 19.6624 47.3081L14.4761 50.3024C14.0997 50.5198 13.7727 50.8131 13.5157 51.1636C13.2587 51.5142 13.0773 51.9143 12.9832 52.3386C12.889 52.763 12.8841 53.2022 12.9687 53.6286Z" fill="#FFD100"/>
<path d="M13.4748 54.8155C13.2257 54.4593 13.0534 54.0552 12.9688 53.6289C12.8842 53.2025 12.8891 52.7633 12.9833 52.3389C13.0774 51.9146 13.2588 51.5145 13.5158 51.1639C13.7728 50.8134 14.0999 50.5201 14.4762 50.3027L19.6625 47.3084C20.3829 46.8925 21.2389 46.7798 22.0424 46.9951C22.8458 47.2103 23.5308 47.736 23.9467 48.4563L38.8438 74.2588C39.2597 74.9792 39.3724 75.8352 39.1571 76.6387C38.9418 77.4421 38.4162 78.1271 37.6959 78.543L34.7544 80.2413C34.0747 80.6339 33.2725 80.7574 32.5062 80.5874C31.7398 80.4173 31.0652 79.9661 30.6154 79.3228L13.4748 54.8155ZM31.6048 42.9032C30.9494 41.7679 31.0691 40.3444 31.8152 39.269C33.4446 36.9195 36.0339 32.5945 36.0978 28.7316C36.1797 23.7519 32.7396 16.8276 31.9238 15.2579C31.8095 15.0378 31.6802 14.8264 31.5864 14.5981C30.4231 11.7334 37.33 11.8759 41.1835 14.0185C43.2751 15.1793 44.7587 17.4354 45.7003 19.3235C46.7053 21.3434 47.2211 23.5571 47.7407 25.7523L48.8484 30.4308L63.5925 21.9183C64.0121 21.6759 64.4822 21.5342 64.9658 21.504C65.4494 21.4739 65.9334 21.5563 66.3799 21.7446C66.8263 21.933 67.2231 22.2222 67.5389 22.5897C67.8548 22.9571 68.0813 23.3927 68.2005 23.8624L75.8176 53.897C75.9854 54.5595 75.9323 55.2587 75.6662 55.8882C75.4001 56.5178 74.9357 57.0431 74.3436 57.3844L51.2761 70.7024C50.5558 71.1183 49.6997 71.231 48.8963 71.0157C48.0929 70.8005 47.4079 70.2748 46.992 69.5545L31.6048 42.9032Z" stroke="black" stroke-width="3" stroke-linecap="round" stroke-linejoin="round"/>
</svg>
